<?xml version="1.0" standalone="no"?>
<svg xmlns:xlink="http://www.w3.org/1999/xlink" id="wave" style="transform:rotate(0deg); transition: 0.3s" viewBox="0 0 1440 140" version="1.1" xmlns="http://www.w3.org/2000/svg"><defs><linearGradient id="sw-gradient-0" x1="0" x2="0" y1="1" y2="0"><stop stop-color="rgba(255, 255, 255, 1)" offset="0%"/><stop stop-color="rgba(255, 255, 255, 1)" offset="100%"/></linearGradient></defs><path style="transform:translate(0, 0px); opacity:1" fill="url(#sw-gradient-0)" d="M0,28L60,35C120,42,240,56,360,58.3C480,61,600,51,720,46.7C840,42,960,42,1080,44.3C1200,47,1320,51,1440,63C1560,75,1680,93,1800,102.7C1920,112,2040,112,2160,105C2280,98,2400,84,2520,72.3C2640,61,2760,51,2880,42C3000,33,3120,23,3240,23.3C3360,23,3480,33,3600,44.3C3720,56,3840,70,3960,77C4080,84,4200,84,4320,88.7C4440,93,4560,103,4680,93.3C4800,84,4920,56,5040,49C5160,42,5280,56,5400,60.7C5520,65,5640,61,5760,63C5880,65,6000,75,6120,81.7C6240,89,6360,93,6480,86.3C6600,79,6720,61,6840,60.7C6960,61,7080,79,7200,93.3C7320,107,7440,117,7560,100.3C7680,84,7800,42,7920,21C8040,0,8160,0,8280,11.7C8400,23,8520,47,8580,58.3L8640,70L8640,140L8580,140C8520,140,8400,140,8280,140C8160,140,8040,140,7920,140C7800,140,7680,140,7560,140C7440,140,7320,140,7200,140C7080,140,6960,140,6840,140C6720,140,6600,140,6480,140C6360,140,6240,140,6120,140C6000,140,5880,140,5760,140C5640,140,5520,140,5400,140C5280,140,5160,140,5040,140C4920,140,4800,140,4680,140C4560,140,4440,140,4320,140C4200,140,4080,140,3960,140C3840,140,3720,140,3600,140C3480,140,3360,140,3240,140C3120,140,3000,140,2880,140C2760,140,2640,140,2520,140C2400,140,2280,140,2160,140C2040,140,1920,140,1800,140C1680,140,1560,140,1440,140C1320,140,1200,140,1080,140C960,140,840,140,720,140C600,140,480,140,360,140C240,140,120,140,60,140L0,140Z"/></svg>